<?xml version="1.0" encoding="UTF-8" standalone="no"?>
<!-- Created with Inkscape (http://www.inkscape.org/) -->

<svg
   width="11in"
   height="8.5in"
   viewBox="0 0 279.4 215.9"
   version="1.1"
   id="svg5"
   xml:space="preserve"
   inkscape:version="1.2.2 (b0a8486541, 2022-12-01)"
   sodipodi:docname="tortoise.svg"
   xmlns:inkscape="http://www.inkscape.org/namespaces/inkscape"
   xmlns:sodipodi="http://sodipodi.sourceforge.net/DTD/sodipodi-0.dtd"
   xmlns="http://www.w3.org/2000/svg"
   xmlns:svg="http://www.w3.org/2000/svg"><sodipodi:namedview
     id="namedview7"
     pagecolor="#ffffff"
     bordercolor="#666666"
     borderopacity="1.0"
     inkscape:showpageshadow="2"
     inkscape:pageopacity="0.0"
     inkscape:pagecheckerboard="0"
     inkscape:deskcolor="#d1d1d1"
     inkscape:document-units="mm"
     showgrid="false"
     inkscape:zoom="0.73762626"
     inkscape:cx="397.89798"
     inkscape:cy="561.25984"
     inkscape:window-width="1920"
     inkscape:window-height="1003"
     inkscape:window-x="0"
     inkscape:window-y="0"
     inkscape:window-maximized="1"
     inkscape:current-layer="layer1" /><defs
     id="defs2" /><g
     inkscape:label="Layer 1"
     inkscape:groupmode="layer"
     id="layer1"><path
       style="fill:#000000;stroke-width:0.105833"
       d="m 89.974169,160.23458 c -1.208418,-0.44867 -1.383288,-1.13482 -0.82062,-3.22012 0.32327,-1.19805 0.35174,-1.22568 1.3128,-1.27421 1.10396,-0.0558 1.28003,0.0664 1.37519,0.95449 0.0394,0.36768 0.0988,0.82281 0.13188,1.01142 l 0.0603,0.3429 0.27946,-0.19995 c 0.52405,-0.37495 1.2166,-1.11986 1.61775,-1.74005 0.63656,-0.98415 1.8867,-4.44629 2.33685,-6.47167 0.35829,-1.61207 0.37084,-5.29924 0.0361,-10.58333 -0.28489,-4.49616 -0.50549,-6.98957 -0.62934,-7.11343 -0.0395,-0.0395 -0.42458,0.27866 -0.85578,0.70699 -0.74945,0.74445 -0.80917,0.78084 -1.35543,0.82615 -0.70631,0.0585 -1.24104,-0.17412 -1.24104,-0.54003 0,-0.34486 0.51279,-1.09954 1.14809,-1.68963 0.49946,-0.46393 1.68034,-1.13267 2.00045,-1.13288 0.0979,-6e-5 0.13276,-0.30978 0.13413,-1.19071 0.003,-2.47467 0.62118,-3.90029 2.11482,-4.88347 0.82028,-0.53995 1.08992,-0.65193 2.06375,-0.85703 1.973311,-0.4156 4.339781,0.0774 5.089551,1.0605 0.57493,0.75377 0.91716,1.95517 0.65647,2.30457 -0.18904,0.25338 -0.83467,0.39001 -1.32747,0.28091 -0.44191,-0.0978 -1.16758,-0.80983 -1.51053,-1.48205 -0.11,-0.2156 -0.3486,-0.51706 -0.53025,-0.6699 -0.83583,-0.70331 -2.282871,-0.01 -2.951071,1.41479 -0.2575,0.54892 -0.27337,0.67893 -0.27337,2.24085 0,0.91198 0.0319,1.68998 0.0708,1.7289 0.0983,0.0982 1.860551,0.53524 2.945411,0.73047 0.49476,0.089 1.50635,0.20824 2.24793,0.26489 1.8997,0.14512 2.41785,0.45676 1.50915,0.90769 -0.37922,0.18817 -0.63293,0.20936 -2.43417,0.20331 -1.39216,-0.004 -2.30176,-0.0606 -2.95641,-0.18172 -0.520061,-0.0962 -0.959891,-0.16064 -0.977391,-0.14314 -0.0175,0.0175 0.0369,0.42224 0.12073,0.89944 0.55549,3.15946 1.048941,9.24286 1.053031,12.98204 0.003,3.46362 -0.078,3.99477 -1.065611,6.91732 -1.1328,3.35239 -1.76081,4.48349 -3.12011,5.61961 -0.876,0.73216 -2.17223,1.51803 -3.00329,1.82084 -0.80336,0.29271 -2.64563,0.38063 -3.2527,0.15524 z m 30.135081,-0.21261 c -0.73229,-0.19722 -1.02089,-0.32744 -1.2882,-0.58124 -0.48356,-0.45916 -0.44213,-1.16806 0.10175,-1.74184 0.39663,-0.4184 1.08459,-0.5746 1.73629,-0.39422 0.53562,0.14823 0.63368,0.2212 0.76637,0.57022 l 0.11242,0.29568 0.43013,-0.24175 c 1.28135,-0.72016 3.36462,-3.40219 4.39259,-5.65508 0.40709,-0.89215 0.89445,-2.38501 1.20028,-3.67657 0.12168,-0.51392 0.22124,-0.95203 0.22124,-0.97357 0,-0.0216 -0.27384,0.095 -0.60854,0.259 -1.22901,0.60217 -1.66245,0.69646 -3.20146,0.69646 -1.31915,0 -1.47395,-0.0212 -2.01789,-0.2763 -0.79792,-0.37422 -1.31961,-0.9366 -1.80536,-1.94619 -0.77041,-1.60121 -1.06224,-3.53811 -0.98069,-6.50876 0.0961,-3.50327 0.7386,-7.16262 1.36797,-7.79198 0.34899,-0.34899 1.44898,-0.39402 1.9343,-0.0792 l 0.24457,0.15866 -0.0733,3.72397 c -0.0987,5.01186 0.095,7.33708 0.76727,9.21136 0.28771,0.80221 0.74,1.65634 0.87707,1.65634 0.0452,0 0.44747,-0.23844 0.8939,-0.52987 1.01151,-0.66033 2.02662,-1.67254 2.91801,-2.90971 l 0.68629,-0.9525 0.0697,-1.05833 c 0.0384,-0.58209 0.0757,-2.08228 0.0828,-3.33375 0.0197,-3.41046 0.20107,-4.75219 0.71168,-5.2628 0.23876,-0.23876 0.33003,-0.26011 0.94485,-0.22097 0.3743,0.0239 0.72933,0.0921 0.78893,0.15173 0.29232,0.2923 0.82439,4.97282 0.92041,8.09651 0.0821,2.66998 -0.18849,4.97064 -1.02562,8.72152 -0.60557,2.71325 -1.5585,4.70906 -3.33428,6.98318 -1.43985,1.84396 -3.07461,3.05738 -4.71163,3.49728 -0.84437,0.22691 -2.47893,0.28591 -3.12208,0.11269 z m 19.3675,-9.04266 c -0.53452,-0.25349 -0.61633,-0.35057 -1.48768,-1.76524 -1.29456,-2.10178 -2.16357,-4.02034 -2.16357,-4.77663 0,-0.44566 0.27577,-0.63655 1.05833,-0.73254 0.32014,-0.0393 0.69331,-0.14113 0.82925,-0.22635 0.13592,-0.0853 0.64712,-0.76609 1.13594,-1.51303 0.48884,-0.74694 1.0459,-1.52464 1.2379,-1.72823 0.71831,-0.76163 2.49922,-0.93881 3.50598,-0.3488 0.39118,0.22924 0.67365,0.57111 1.51605,1.83481 0.56941,0.85419 1.28911,1.82794 1.5993,2.16388 0.31021,0.33594 0.54834,0.67739 0.52917,0.75879 -0.0191,0.0814 -0.66411,0.81224 -1.43321,1.62409 -1.68745,1.78124 -2.48243,2.74374 -3.05167,3.69472 -0.60793,1.01561 -0.80161,1.13415 -1.92594,1.17862 -0.74426,0.0295 -1.0098,-0.003 -1.34985,-0.16409 z m 2.97565,-4.67566 1.59983,-1.64041 -0.30235,-0.24535 c -0.1663,-0.13493 -0.59759,-0.65167 -0.95841,-1.1483 l -0.65605,-0.90297 -0.21632,0.30165 c -0.85019,1.18552 -1.815,1.83329 -2.7334,1.83518 -0.27648,5.3e-4 -0.5027,0.0267 -0.5027,0.0582 0,0.12949 2.04013,3.44256 2.10215,3.41377 0.0371,-0.0172 0.78735,-0.76948 1.66725,-1.67171 z m -31.67413,3.21322 c -0.47659,-0.11302 -0.78021,-0.26705 -1.12552,-0.57101 -0.97838,-0.8612 -1.12455,-1.86568 -0.82422,-5.66357 0.11945,-1.51061 0.29133,-4.24674 0.38196,-6.08031 0.38705,-7.83091 1.59935,-13.06911 3.25884,-14.08097 0.57558,-0.35095 1.9943,-0.24504 2.14993,0.16049 0.0334,0.0872 -0.087,0.51376 -0.2678,0.94793 -0.82573,1.98352 -1.6223,7.47975 -1.81107,12.49631 -0.0592,1.57162 -0.18165,4.23862 -0.27224,5.92665 -0.16304,3.03803 -0.11715,4.57243 0.14461,4.83418 0.10846,0.10846 1.12095,-0.6608 2.45774,-1.86719 0.43656,-0.39398 0.904,-0.75838 1.03876,-0.80978 0.62538,-0.23853 1.92457,0.019 1.92457,0.38162 0,0.24613 -0.38362,0.96708 -0.90968,1.70956 -0.97116,1.37072 -2.35193,2.32206 -3.82245,2.63366 -0.88509,0.18754 -1.47733,0.18307 -2.32343,-0.0176 z m -64.145909,-0.30814 c -1.089624,-0.29334 -1.776022,-0.84958 -2.202335,-1.78468 -0.414333,-0.90882 -0.496867,-1.79549 -0.350538,-3.76586 0.132451,-1.7835 0.130873,-1.82258 -0.233119,-5.76829 -0.06444,-0.6985 -0.08802,-1.81148 -0.0524,-2.47328 l 0.06475,-1.20328 -0.239313,0.082 c -0.131623,0.0451 -0.574141,0.10175 -0.983372,0.12603 -0.656592,0.0389 -0.768038,0.0176 -0.948051,-0.18128 -0.155214,-0.17151 -0.17761,-0.26821 -0.09365,-0.40442 0.172668,-0.28014 1.069722,-0.7262 1.751309,-0.87085 0.70389,-0.14937 0.677204,-0.0997 0.764863,-1.42483 0.06321,-0.95546 0.374582,-2.24732 0.63891,-2.65074 0.236952,-0.36163 0.635812,-0.49883 1.29656,-0.44599 0.883417,0.0706 0.903084,0.11008 0.882207,1.76891 -0.0099,0.78851 0.01402,1.65988 0.05322,1.93636 0.06024,0.42494 0.107107,0.50271 0.302951,0.50271 0.37386,0 1.425164,-0.30125 2.392829,-0.68568 1.138344,-0.45223 1.54896,-0.52552 2.105265,-0.37572 0.603035,0.16238 0.667841,0.38753 0.219318,0.76197 -0.942374,0.78673 -2.699426,1.45697 -4.256041,1.6235 -0.806027,0.0862 -0.785101,0.0491 -0.599651,1.0642 0.0631,0.34539 0.207321,0.72774 0.320492,0.84966 0.233688,0.25175 0.176908,0.53148 -0.127493,0.62809 -0.255554,0.0811 -0.262865,0.57051 -0.04302,2.8793 0.103895,1.09108 0.149675,2.56569 0.132291,4.26135 -0.02585,2.52151 -0.01976,2.60801 0.221329,3.14099 0.136352,0.30145 0.336158,0.62795 0.444014,0.72555 0.185119,0.16753 0.23186,0.15575 0.834646,-0.21043 0.3512,-0.21333 1.056269,-0.71054 1.566821,-1.10488 0.510551,-0.39435 1.023525,-0.76624 1.139941,-0.82643 0.562496,-0.29083 1.592857,-0.23022 1.937034,0.11396 0.144111,0.14411 0.113294,0.22284 -0.293787,0.75049 -0.69121,0.89593 -1.820072,1.97201 -2.499068,2.38221 -1.12607,0.68027 -2.868211,0.92371 -4.146904,0.57946 z m 12.950956,-0.74329 c -2.582768,-0.57942 -3.873643,-2.44872 -3.868118,-5.60137 0.0044,-2.5233 0.75426,-4.66916 2.588738,-7.40834 1.303048,-1.94567 2.532133,-3.23061 3.491148,-3.64982 0.232834,-0.10175 1.01441,-0.52423 1.736838,-0.93878 1.296863,-0.7442 2.523439,-1.28331 3.554829,-1.56246 1.378262,-0.37304 3.054221,-0.27876 4.135153,0.2326 0.62143,0.29399 1.43586,1.10746 1.708082,1.70608 0.100639,0.22131 0.194154,0.42008 0.207803,0.4417 0.0415,0.0658 0.947395,-0.49303 2.902189,-1.79015 1.959522,-1.30025 2.34021,-1.45893 3.044958,-1.26916 0.938102,0.25261 0.844602,0.48978 -0.749925,1.90217 -1.238391,1.09694 -2.578882,2.08202 -3.903982,2.86893 l -0.91072,0.54081 -0.06592,1.18238 c -0.07023,1.25973 -0.407766,2.97269 -0.858601,4.35737 -0.385515,1.18405 -1.431591,3.24705 -2.092914,4.12749 -1.722681,2.29348 -4.210983,4.0071 -6.855706,4.72128 -1.082166,0.29225 -3.077243,0.36061 -4.063851,0.13927 z m 2.801101,-1.69744 c 1.894493,-0.56242 4.121991,-2.22237 5.522718,-4.11561 0.775112,-1.04764 1.785072,-3.08479 2.133039,-4.30247 0.306708,-1.0733 0.591993,-2.40778 0.591993,-2.76917 v -0.25432 l -0.978958,0.36811 c -1.228191,0.46185 -2.655595,0.82709 -3.858779,0.98738 -1.102795,0.14692 -2.914028,0.0721 -3.734763,-0.15445 -0.527762,-0.14563 -0.594122,-0.14487 -0.711102,0.008 -0.268747,0.35147 -1.113484,2.51726 -1.366157,3.50264 -0.66648,2.59917 -0.345012,5.34169 0.756116,6.45064 0.507921,0.51152 0.733976,0.54985 1.645893,0.27914 z m 3.876754,-11.95594 c 1.045483,-0.27108 2.79149,-0.92747 3.735996,-1.40453 0.549729,-0.27766 0.580528,-0.3142 0.554108,-0.65748 -0.03921,-0.50952 -0.604492,-1.62093 -0.988977,-1.94445 -0.182887,-0.15389 -0.454283,-0.27111 -0.627666,-0.27111 -1.011524,0 -4.279747,1.99681 -5.022546,3.06868 -0.40834,0.58923 -0.432606,1.25166 -0.05325,1.45371 0.330561,0.17607 1.069441,0.10076 2.402337,-0.24482 z M 82.399798,122.8015 c -1.100044,-0.21658 -1.873795,-0.97558 -2.235365,-2.19275 -0.600171,-2.02041 -0.721688,-4.69387 -0.390654,-8.5951 0.09625,-1.13506 0.245344,-3.75128 0.331188,-5.81383 0.218163,-5.24177 0.572869,-8.799255 0.950059,-9.528665 0.259512,-0.50183 1.260039,-0.69499 1.999503,-0.38602 0.333168,0.1392 0.35365,0.17992 0.412577,0.8202 0.0341,0.37056 0.03916,1.22142 0.01133,1.89082 -0.02794,0.669399 -0.09427,3.526885 -0.147389,6.349995 -0.05313,2.8231 -0.174493,6.15685 -0.269588,7.40833 -0.188859,2.48512 -0.155232,4.63234 0.09614,6.13833 0.165297,0.99035 0.383548,1.79917 0.485482,1.79917 0.0361,0 0.37387,-0.31312 0.75054,-0.69584 0.82244,-0.83562 1.10502,-0.99749 1.74134,-0.99749 0.55956,0 1.21894,0.242 1.21894,0.44737 0,0.26764 -0.7118,1.61847 -1.13057,2.14554 -0.82467,1.03796 -2.30981,1.50794 -3.823467,1.20994 z M 25.38842,121.91329 c -1.743546,-0.40093 -2.837235,-1.10613 -3.710188,-2.39229 -1.06106,-1.56332 -1.307908,-3.02027 -0.908295,-5.36094 0.319919,-1.87387 1.072074,-3.69987 2.42752,-5.89328 1.341592,-2.17098 3.786007,-3.96893 5.406601,-3.97673 0.595101,-0.003 1.230123,0.18805 1.456116,0.43778 0.261401,0.28883 0.04497,0.70777 -0.410792,0.79513 -0.245066,0.047 -0.591336,0.31475 -1.194336,0.92363 -1.010026,1.01986 -1.561748,1.82909 -2.316367,3.39748 -1.172982,2.43791 -1.528672,3.63644 -1.617523,5.45041 -0.09558,1.95141 0.331145,3.14458 1.509938,4.22193 0.647868,0.59212 0.973002,0.6966 1.948187,0.62607 0.706175,-0.051 1.956866,-0.61777 2.976663,-1.34872 l 0.593356,-0.42531 -0.245058,-0.84607 c -0.858685,-2.96465 -0.463247,-5.59568 1.414307,-9.41003 0.985091,-2.00127 2.162117,-2.97 4.084946,-3.36204 0.671529,-0.13692 0.944526,-0.14693 1.417257,-0.052 1.091552,0.21922 1.165538,0.56069 0.242919,1.12115 -0.830293,0.50437 -1.405229,1.17574 -1.900242,2.21893 -0.478484,1.00836 -1.316247,3.5296 -1.496745,4.50443 -0.265855,1.43583 -0.09263,4.05996 0.288743,4.37415 0.53313,0.43919 0.583622,0.53922 0.526051,1.04207 -0.04862,0.42467 -0.01465,0.55298 0.239174,0.90338 0.450557,0.62197 0.94594,1.00071 1.212526,0.92701 0.382474,-0.10571 1.890298,-0.86803 2.444717,-1.23594 1.078084,-0.71542 2.17613,-2.47794 2.722662,-4.37027 0.211976,-0.73394 0.24424,-1.07913 0.24235,-2.5929 -0.0024,-1.89651 -0.0579,-2.19992 -0.849591,-4.64163 -0.474411,-1.46318 -0.47422,-1.67367 0.0016,-1.87253 0.497203,-0.20774 1.301252,-0.19295 1.74061,0.032 0.663747,0.33988 1.996349,3.12774 2.390337,5.0007 0.629165,2.99093 -0.462376,6.38005 -2.798377,8.68865 -0.447613,0.44236 -1.048854,0.94064 -1.336091,1.10728 -0.287234,0.16665 -0.837381,0.50539 -1.222549,0.75277 -1.978531,1.27074 -4.672968,1.43233 -6.714419,0.40266 l -0.747223,-0.37689 -0.78736,0.37053 c -0.433049,0.20378 -1.215986,0.49747 -1.739861,0.65263 -0.840781,0.24902 -1.169731,0.28625 -2.804583,0.31745 -1.310387,0.025 -2.037807,-0.008 -2.487084,-0.11067 z m 104.88082,-0.0496 c -0.82464,-0.19901 -1.27585,-0.70971 -1.38491,-1.56749 -0.0832,-0.65392 0.10274,-6.73921 0.28053,-9.18214 0.20625,-2.83468 0.70698,-5.69401 1.19848,-6.84373 0.20869,-0.48818 0.66621,-0.65778 1.61193,-0.59756 0.52443,0.0334 0.73354,0.0971 0.91556,0.27908 0.22338,0.22326 0.23788,0.33691 0.27265,2.13764 l 0.0367,1.90185 0.45816,-0.5553 c 1.41398,-1.71378 3.47741,-2.44588 5.38506,-1.91062 0.8531,0.23936 1.6242,0.97585 1.97308,1.88448 0.20644,0.53767 0.25061,0.88642 0.28824,2.27542 0.0368,1.36089 -0.003,1.99206 -0.23607,3.70416 -0.44876,3.30159 -0.49364,3.73302 -0.45981,4.42058 l 0.032,0.65091 0.52483,-0.3272 c 0.70192,-0.43763 1.63575,-0.52431 2.1509,-0.19965 0.28449,0.1793 0.32861,0.25402 0.24367,0.41274 -0.2129,0.39781 -1.49168,1.48245 -2.11507,1.79396 -1.52646,0.76278 -3.64457,0.44092 -4.20511,-0.63902 -0.23894,-0.46035 -0.30798,-1.69666 -0.15087,-2.70186 0.0703,-0.44965 0.3113,-1.77004 0.53564,-2.93421 0.58616,-3.04206 0.65293,-3.52314 0.65716,-4.73448 0.004,-1.22829 -0.12979,-1.8529 -0.4868,-2.26795 l -0.24549,-0.2854 -0.51818,0.30152 c -0.66874,0.38915 -1.92616,1.60482 -2.60122,2.51486 -0.46987,0.63342 -0.56994,0.71437 -0.88318,0.71437 -0.24613,0 -0.369,0.0562 -0.40514,0.18521 -0.0285,0.10186 -0.0804,1.94733 -0.1154,4.10104 -0.0881,5.43232 -0.1731,6.74861 -0.45614,7.06543 -0.34271,0.38363 -1.52462,0.59079 -2.30127,0.40336 z m 32.3314,-0.20691 c -0.81624,-0.26476 -1.45553,-0.85028 -1.70789,-1.56427 -0.24642,-0.69708 -0.16137,-2.78165 0.20654,-5.06261 0.42519,-2.63616 0.54953,-3.81798 0.54953,-5.22289 0,-1.51847 -0.31806,-3.16761 -0.69393,-3.59794 -0.0569,-0.0651 -1.03735,0.64898 -1.57006,1.14352 -0.28477,0.26435 -0.8443,0.87062 -1.24338,1.34726 -0.66276,0.79155 -0.76665,0.87277 -1.19942,0.93766 -0.42905,0.0643 -0.47893,0.10241 -0.52801,0.40339 -0.0298,0.18278 -0.10065,0.61808 -0.15754,0.96733 -0.2745,1.68685 -0.44199,3.77091 -0.44202,5.50052 l -5e-5,1.90218 0.32525,0.2674 c 0.17888,0.14707 0.32482,0.32199 0.32429,0.38873 0,0.0668 -0.16564,0.26592 -0.3669,0.44264 -0.42551,0.37359 -1.02805,0.49799 -1.98974,0.41079 -1.00471,-0.0911 -1.4956,-0.5654 -1.6667,-1.61033 -0.21192,-1.29418 -0.0914,-3.67796 0.32909,-6.50818 0.57691,-3.8832 0.63175,-4.59122 0.72959,-9.41917 0.12345,-6.091635 0.26774,-7.560705 0.76681,-7.807145 0.66425,-0.32802 1.64325,-0.21735 1.92635,0.21777 0.10868,0.16701 0.18449,0.85486 0.26493,2.40355 0.20546,3.955315 0.31786,8.081075 0.25085,9.207495 l -0.0661,1.11125 0.96561,-0.91786 c 0.6523,-0.62004 1.19771,-1.03212 1.68092,-1.27 0.67303,-0.33133 0.78111,-0.35214 1.82877,-0.35214 1.19863,0 1.67915,0.15441 2.19215,0.70439 0.33666,0.36091 0.75496,1.33254 0.95759,2.22421 0.2891,1.27211 0.23782,4.09971 -0.12152,6.70223 -0.31541,2.28421 -0.37756,4.04978 -0.17263,4.90402 0.19757,0.82353 0.27154,0.84635 1.43877,0.44402 0.82254,-0.28353 1.11891,-0.33776 1.63996,-0.30007 0.65864,0.0476 1.00144,0.245 0.89615,0.51595 -0.0839,0.21615 -1.21566,0.92415 -1.98905,1.24439 -0.55605,0.23025 -0.84855,0.27709 -1.87586,0.30038 -0.66939,0.0152 -1.33644,-0.0111 -1.48235,-0.0584 z M 50.236608,121.49645 c -0.790353,-0.25676 -1.38354,-0.67535 -1.684292,-1.18855 -0.427064,-0.72873 -0.574973,-1.50641 -0.641522,-3.373 -0.06612,-1.85453 0.06354,-3.57081 0.383751,-5.08 0.24303,-1.1454 1.04763,-3.76455 1.523024,-4.95779 0.289591,-0.72687 0.401661,-0.89224 0.710264,-1.04809 0.532331,-0.26883 1.63374,-0.25073 2.101658,0.0345 l 0.359407,0.21911 -0.06521,0.97113 c -0.03586,0.53411 -0.186138,1.62225 -0.333945,2.41809 -0.709332,3.81926 -0.926868,6.4057 -0.702931,8.35766 0.18625,1.62347 0.132354,1.59449 1.178004,0.63324 0.494228,-0.45435 1.014187,-0.88752 1.155461,-0.9626 0.331055,-0.17597 1.285874,-0.16721 1.668397,0.0153 0.431574,0.20591 0.418817,0.54427 -0.05717,1.51608 -0.575046,1.1741 -1.029401,1.66018 -2.000424,2.14008 -0.77188,0.38149 -0.862224,0.40088 -1.978658,0.42472 -0.766665,0.0164 -1.323553,-0.025 -1.615826,-0.11991 z m 52.092632,-0.0334 c -1.72351,-0.23835 -3.254201,-1.05637 -3.905851,-2.08731 -0.16789,-0.26559 -0.3104,-0.48291 -0.3167,-0.48291 -0.007,0 -0.33226,0.0917 -0.72435,0.20387 -3.27595,0.93684 -6.95759,0.24129 -8.872738,-1.67626 -1.82858,-1.8309 -2.1692,-4.62278 -0.99297,-8.13908 1.07463,-3.21257 2.352198,-4.66074 4.652068,-5.27327 0.72595,-0.19335 2.52591,-0.18368 3.20234,0.0172 1.11595,0.33141 2.03696,1.38733 2.03696,2.33537 0,0.56822 -0.37931,1.90331 -0.69412,2.44309 -0.31142,0.53399 -1.04723,1.03729 -3.38047,2.31228 -2.32849,1.27241 -2.2758,1.22999 -2.27358,1.83088 0.002,0.64394 0.23968,1.73921 0.51455,2.375 0.26259,0.60739 1.05555,1.48002 1.67454,1.84277 0.89227,0.52291 1.74237,0.63962 3.60346,0.49475 l 0.87312,-0.068 v -0.91817 c 0,-2.42407 0.91573,-5.3355 2.294131,-7.29382 0.63732,-0.90545 2.0628,-2.29843 2.80195,-2.73808 1.09771,-0.65292 1.70297,-0.81488 3.05309,-0.81704 1.34173,-0.002 1.96088,0.18686 2.16937,0.66222 0.0581,0.13245 0.1571,0.22771 0.22001,0.21167 0.0629,-0.0161 0.40979,-0.37362 0.77086,-0.79462 0.7755,-0.90419 1.84952,-1.79263 2.66059,-2.20082 1.20142,-0.60464 3.08144,-0.40706 2.79721,0.29399 -0.0295,0.0727 -0.2066,0.24699 -0.39354,0.38719 -1.18067,0.88533 -2.91153,3.65825 -3.60642,5.77759 -0.9927,3.0277 -1.04965,6.12208 -0.14378,7.81387 0.46454,0.8676 0.53143,0.89578 1.46751,0.61833 1.2718,-0.37696 2.52485,-0.23155 2.52485,0.29299 0,0.42279 -1.43543,1.27423 -2.61844,1.55317 -0.86172,0.20318 -2.58812,0.14656 -3.2908,-0.10791 -0.44728,-0.16199 -0.46739,-0.15963 -0.7992,0.0934 -1.09701,0.83674 -3.44063,1.29524 -5.30365,1.0376 z m 3.18604,-2.18808 c 0.43049,-0.20444 0.78272,-0.39359 0.78272,-0.42033 0,-0.0267 -0.13935,-0.3433 -0.30968,-0.70344 -0.43789,-0.92592 -0.57679,-1.90305 -0.50387,-3.54449 0.0868,-1.9544 0.5819,-3.7714 1.55543,-5.70872 0.51431,-1.02345 0.54004,-1.21577 0.16349,-1.22187 -0.055,-8.5e-4 -0.2349,-0.13082 -0.39972,-0.28873 l -0.29969,-0.28712 -0.39402,0.2044 c -0.56559,0.2934 -1.89836,1.66713 -2.50526,2.58225 -1.01468,1.53001 -1.61351,3.33076 -1.85578,5.58063 -0.17555,1.63015 0.0773,2.88743 0.71825,3.57092 0.74902,0.79878 1.70754,0.87315 3.04813,0.2365 z m -13.140551,-9.74805 c 1.41178,-0.76956 1.7069,-1.02646 2.11883,-1.84443 0.60392,-1.19923 0.58706,-1.77568 -0.0661,-2.26054 -0.92089,-0.68355 -2.11769,0.96843 -2.87784,3.97235 -0.0847,0.33469 -0.13013,0.60854 -0.10098,0.60854 0.0291,0 0.44592,-0.21416 0.9261,-0.47592 z m 23.969321,11.74194 c -0.65393,-0.20147 -0.83413,-0.43461 -0.94874,-1.22737 -0.13219,-0.91431 -0.12677,-5.33062 0.009,-7.08063 0.28326,-3.65926 1.05054,-8.51411 1.52514,-9.64996 0.0908,-0.21711 0.2912,-0.47748 0.44553,-0.5786 0.38416,-0.25172 1.37722,-0.25345 1.75987,-0.003 l 0.28676,0.18765 v 1.73799 1.73798 l 0.55563,-0.24443 c 1.67252,-0.73579 3.66321,-0.78812 5.19962,-0.13667 l 0.51649,0.21901 0.48461,-0.25709 c 0.62667,-0.33244 1.67663,-0.36324 2.01278,-0.0591 0.2007,0.18162 0.2062,0.22253 0.0662,0.49317 -0.67647,1.30816 -2.87642,1.65171 -4.8137,0.75174 -0.26193,-0.12168 -0.64294,-0.22182 -0.84666,-0.22253 -0.50327,-0.002 -1.35272,0.41139 -2.22183,1.08063 -0.39744,0.30603 -0.81022,0.60925 -0.91727,0.67382 -0.18525,0.11171 -0.19481,0.40744 -0.1979,6.12385 l -0.003,6.00648 -0.23608,0.19118 c -0.4909,0.39749 -1.80762,0.5234 -2.67595,0.25587 z m -57.655374,-0.35603 c -1.595685,-0.55105 -1.898992,-1.43262 -1.643246,-4.77617 0.08218,-1.07438 0.19356,-4.14416 0.247512,-6.82174 0.109131,-5.41575 0.156341,-5.92451 0.908485,-9.789576 0.547189,-2.811879 0.837143,-4.026309 1.06779,-4.472329 0.28588,-0.55283 1.243651,-0.77039 2.000101,-0.45433 0.361738,0.15115 0.367017,0.16261 0.367017,0.79676 0,0.92406 -0.272015,3.41975 -0.646231,5.929055 -0.298893,2.00424 -0.330413,2.4922 -0.413595,6.40292 -0.04952,2.32833 -0.169442,5.49539 -0.266486,7.03791 -0.176479,2.80517 -0.16804,4.15716 0.02717,4.35236 0.06794,0.068 0.245749,0.0201 0.513974,-0.1381 0.517946,-0.30561 1.453837,-0.33357 1.87731,-0.0561 0.156033,0.10219 0.283694,0.22424 0.283694,0.27112 0,0.24153 -0.73367,1.14129 -1.141521,1.39993 -0.846903,0.5371 -2.166196,0.66905 -3.18197,0.31827 z m 141.384014,0.048 c -1.28585,-0.24416 -2.21102,-0.66764 -2.91753,-1.33545 l -0.31825,-0.30083 -0.97903,0.30695 c -2.80408,0.87913 -5.93104,0.81922 -7.84425,-0.15027 -1.53167,-0.77616 -2.44906,-2.34551 -2.4449,-4.18243 0.004,-2.13474 0.93437,-3.70739 3.88574,-6.57402 1.6925,-1.64391 3.07344,-2.75569 3.82084,-3.07611 0.71932,-0.30838 1.73306,-0.2206 1.8802,0.16282 0.0741,0.19335 -0.77707,1.34242 -2.63312,3.55432 -1.66918,1.98922 -2.38324,3.00307 -2.73677,3.8858 -0.20807,0.51957 -0.24572,0.80175 -0.24427,1.8313 0.001,0.92886 0.0459,1.31734 0.18824,1.64042 0.33612,0.76283 0.71217,1.20126 1.26782,1.47816 0.83134,0.41428 1.78909,0.35994 4.00696,-0.22736 l 1.02346,-0.27101 v -1.23073 c 0,-0.83477 0.0687,-1.55421 0.2141,-2.23615 0.60238,-2.82633 1.46556,-4.25061 4.04084,-6.6675 1.82399,-1.71183 1.86633,-1.73833 2.84809,-1.78291 0.73406,-0.0333 0.84363,-0.0122 1.09691,0.21148 l 0.28138,0.24852 -0.3099,0.52916 c -0.17043,0.29104 -0.77217,1.07685 -1.3372,1.74625 -1.20297,1.42518 -1.86834,2.41173 -2.23697,3.3168 -0.71193,1.74792 -1.11821,4.71164 -0.72761,5.30778 0.10054,0.15337 0.15194,0.36424 0.11626,0.47663 -0.12612,0.3974 0.40427,1.17749 1.00527,1.47851 0.86603,0.43375 1.99829,0.35329 4.81543,-0.34215 2.0525,-0.50669 2.23032,-0.61495 3.05997,-1.8629 1.01125,-1.52115 1.4855,-3.28195 1.48596,-5.51717 0,-2.44509 -0.54361,-3.63897 -2.38103,-5.22413 -0.34667,-0.29908 -0.63032,-0.62956 -0.63032,-0.7344 -1e-5,-0.12008 0.14624,-0.2517 0.39526,-0.35575 0.55605,-0.23234 1.25964,-0.12309 2.1202,0.32922 1.36001,0.71481 2.40775,1.76737 3.03364,3.04762 0.59087,1.20859 0.73549,1.92633 0.73049,3.62535 -0.004,1.59811 -0.14946,2.47087 -0.61486,3.70729 -0.64376,1.71036 -2.40554,3.70446 -3.94502,4.46531 l -0.80918,0.3999 -1.48715,0.0145 c -0.97223,0.01 -1.76196,0.077 -2.28089,0.19508 -1.08229,0.24624 -3.4211,0.30531 -4.43862,0.11211 z m -29.69262,-0.30552 c -2.18032,-0.56386 -3.02877,-1.79364 -3.19287,-4.62786 -0.11205,-1.93549 0.22807,-3.46308 1.23781,-5.55946 1.13527,-2.35697 2.34895,-3.76847 3.9659,-4.6123 0.46567,-0.24302 1.06098,-0.57783 1.32292,-0.74403 1.09401,-0.69414 2.99692,-0.98367 4.44499,-0.6763 1.66531,0.35349 2.86858,1.24693 3.52001,2.61369 0.18861,0.39569 0.38341,0.72213 0.43291,0.7254 0.15378,0.01 2.06978,-1.10069 3.44363,-1.99656 1.26635,-0.82578 1.33256,-0.85499 1.93843,-0.85499 0.6692,0 1.03669,0.12887 1.03669,0.36353 0,0.0794 -0.27088,0.39199 -0.60197,0.69458 -1.38081,1.26199 -3.41273,2.61618 -4.82199,3.21367 l -0.71437,0.30288 v 0.89213 c 0,2.92407 -1.77463,6.47881 -4.19434,8.40167 -0.87172,0.69272 -2.37003,1.46828 -3.37275,1.74581 -0.84789,0.23469 -3.7011,0.31052 -4.445,0.11814 z m 3.2048,-1.64899 c 2.86593,-0.96643 5.61925,-4.69306 6.00836,-8.13229 l 0.0714,-0.6312 -0.62061,0.10164 c -0.83506,0.13674 -3.11727,0.0277 -3.89568,-0.18611 -0.75889,-0.20847 -1.55533,-0.59902 -2.10586,-1.03265 -0.33419,-0.26323 -0.42541,-0.29381 -0.5114,-0.17138 -0.31038,0.4419 -1.29289,2.66724 -1.52874,3.46249 -0.67579,2.27877 -0.30043,5.67042 0.72286,6.53146 0.38921,0.3275 1.00376,0.34668 1.85967,0.0581 z m 5.20896,-10.09962 c 0.64601,-0.11351 0.68587,-0.137 0.65431,-0.38546 -0.0586,-0.46162 -0.61605,-1.54455 -1.03214,-2.0051 -0.90688,-1.00381 -1.82459,-1.10649 -2.66289,-0.29791 -1.24254,1.19847 -0.13331,2.81399 1.92947,2.81013 0.23283,-4.3e-4 0.73289,-0.0552 1.11125,-0.12166 z M 65.402868,120.57363 c -0.555521,-0.1303 -1.047981,-0.44748 -1.233172,-0.79423 -0.224599,-0.42055 -0.178257,-1.46795 0.142245,-3.21491 0.374068,-2.03894 0.478611,-3.13645 0.604873,-6.35001 0.258266,-6.5733 0.618359,-10.711296 1.126539,-12.945595 0.323743,-1.42339 0.523558,-1.65939 1.404913,-1.65939 0.62693,0 1.058392,0.1925 1.137448,0.50747 0.03792,0.15107 0.01317,1.03928 -0.05499,1.97381 -0.173004,2.372035 -0.414384,7.703465 -0.541714,11.964955 -0.110611,3.70198 -0.173567,4.50185 -0.543157,6.90098 -0.118419,0.7687 -0.200037,1.51631 -0.181372,1.66134 l 0.03393,0.2637 0.687917,-0.30901 c 1.04083,-0.46752 2.434167,-0.40046 2.434167,0.11715 0,0.22416 -0.700035,0.84761 -1.428751,1.27246 -1.104752,0.64407 -2.462904,0.8754 -3.588882,0.61128 z M 50.430729,102.90356 c -0.507624,-0.0998 -0.944411,-0.34335 -1.03396,-0.57672 -0.03155,-0.0822 0.04245,-0.27635 0.164437,-0.43144 0.121988,-0.15508 0.221797,-0.36496 0.221797,-0.4664 0,-0.24889 0.144816,-0.35058 0.960803,-0.67467 1.000622,-0.39741 1.970874,-0.35993 1.85798,0.0718 -0.03068,0.11732 0.01311,0.34652 0.09729,0.50934 0.407674,0.78835 0.07662,1.35608 -0.914755,1.56869 -0.595895,0.1278 -0.700411,0.12775 -1.353603,-5.3e-4 z m 61.597121,-6.190595 c -1.129,-0.3037 -1.81915,-1.01554 -1.97185,-2.03382 -0.052,-0.3468 -0.0301,-0.51448 0.0814,-0.62611 0.22425,-0.22427 0.90856,-0.35556 1.45146,-0.27849 0.39394,0.0559 0.58855,0.17609 1.13486,0.70068 0.65821,0.63206 0.65986,0.63285 0.93354,0.45353 0.6673,-0.43723 1.69127,-2.55736 2.47843,-5.131599 0.38893,-1.27192 1.0619,-3.84389 1.06277,-4.06171 0,-0.04645 -0.21274,0.06214 -0.47317,0.241322 -1.26377,0.869497 -2.61756,1.24076 -4.13411,1.133736 -2.80211,-0.197747 -3.47849,-1.430009 -3.46772,-6.317682 0.0122,-5.512713 0.70521,-11.124784 1.58576,-12.840629 0.41191,-0.802652 2.38212,-0.800293 2.68775,0.0032 0.0687,0.180792 0.0945,0.85273 0.0659,1.724911 -0.34953,10.687421 -0.32238,15.386544 0.0898,15.523912 0.18944,0.06315 1.36823,-0.717421 2.74561,-1.81809 1.23811,-0.989378 1.32406,-1.081957 1.32642,-1.428751 0.0341,-5.020626 0.3375,-10.529048 0.67779,-12.307638 0.24805,-1.296398 0.43614,-1.488677 1.44686,-1.479157 0.68984,0.0065 1.01899,0.150086 1.15319,0.503057 0.22736,0.598001 0.59233,10.545403 0.49708,13.547917 -0.0856,2.699066 -0.4646,4.754133 -1.46368,7.937491 -1.13215,3.60737 -2.27554,5.50484 -3.71988,6.1732 -1.18421,0.548 -2.96467,0.70983 -4.1882,0.3807 z M 80.68899,86.909927 c -0.673431,-0.231575 -1.411894,-0.817923 -1.807311,-1.435039 l -0.153263,-0.239182 -0.899581,0.17277 c -1.085135,0.208406 -3.194982,0.147257 -4.180417,-0.121161 -2.219702,-0.604613 -3.67318,-2.000829 -4.378712,-4.20621 -0.435732,-1.362024 -0.580973,-2.501877 -0.513548,-4.030347 0.168523,-3.820252 2.37786,-7.584296 5.194864,-8.850475 0.855558,-0.384556 2.915492,-0.951291 3.736272,-1.027937 l 0.652305,-0.06091 0.05973,-1.070348 c 0.03289,-0.588691 0.08635,-2.046658 0.118723,-3.23993 0.16104,-5.927272 0.582923,-9.218018 1.240833,-9.678837 0.278641,-0.195166 1.120889,-0.215627 1.513435,-0.03677 l 0.278509,0.126895 -0.06116,2.65123 c -0.22341,9.68083 -0.255541,20.670732 -0.07029,24.029563 0.212674,3.855073 0.411829,4.926187 1.038411,5.584772 0.270094,0.283896 0.332277,0.301913 0.821381,0.238005 0.291049,-0.03803 0.92392,-0.161178 1.40639,-0.273668 1.43696,-0.335029 2.36133,-0.227102 2.43527,0.284337 0.0259,0.178826 -0.10032,0.277965 -0.68792,0.540636 -1.45288,0.649446 -2.09238,0.797303 -3.629985,0.83926 -1.26401,0.0345 -1.50777,0.01181 -2.114013,-0.196654 z m -3.351748,-3.541441 c 0.183064,-0.09347 0.463982,-0.262156 0.624265,-0.374862 l 0.291412,-0.20492 -0.06248,-4.940233 c -0.03432,-2.717128 -0.01672,-5.96417 0.03916,-7.215648 0.05588,-1.25148 0.09284,-2.286288 0.08206,-2.299572 -0.06908,-0.08518 -2.315937,1.00385 -2.754973,1.335326 -1.349095,1.018576 -2.563549,3.219255 -3.043523,5.515079 -0.395528,1.891909 -0.05412,4.512821 0.811842,6.232402 1.007732,2.001088 2.49729,2.725932 4.012248,1.952428 z m 137.558538,3.549199 c -1.21072,-0.201093 -2.19235,-0.897867 -2.61833,-1.858494 -0.43411,-0.978958 -0.5003,-1.74443 -0.42371,-4.900723 0.16569,-6.829839 0.25392,-8.582273 0.4869,-9.670779 0.12299,-0.574593 0.20304,-1.065301 0.17788,-1.090458 -0.0252,-0.02516 -0.26573,0.17112 -0.53459,0.436175 -0.4618,0.455263 -0.52128,0.481916 -1.07557,0.481916 -0.74629,0 -1.21121,-0.226487 -1.21121,-0.590057 0,-0.882079 1.21073,-1.852311 2.82681,-2.265291 0.50312,-0.128574 0.44732,0.02509 0.71176,-1.960068 0.20403,-1.531762 0.3591,-1.956622 0.81114,-2.2225 0.48726,-0.28658 1.66865,-0.292727 2.29136,-0.01192 0.62077,0.279926 0.70588,0.59397 0.71054,2.621726 l 0.003,1.657302 0.37042,0.06132 c 1.14759,0.189993 1.84257,-0.01968 3.62126,-1.092514 1.29044,-0.778351 1.75732,-0.924913 2.39734,-0.752574 0.76758,0.206691 0.76825,0.353596 0.006,1.125974 -0.89904,0.909975 -1.8822,1.570624 -2.85114,1.915891 -0.67679,0.241158 -1.00705,0.28844 -2.28104,0.326557 l -1.48969,0.04457 -0.17473,1.338083 c -0.26017,1.992248 -0.27946,2.25184 -0.29996,4.036832 -0.01,0.90223 -0.0551,2.116668 -0.0994,2.69875 -0.17588,2.310252 -0.23517,6.123448 -0.10483,6.74503 0.07,0.333683 0.17182,0.634284 0.22637,0.668002 0.0546,0.03372 0.73065,-0.554672 1.50243,-1.307538 1.22788,-1.197784 1.45927,-1.378313 1.85161,-1.444598 0.5608,-0.09474 1.22802,0.01275 1.50911,0.243149 0.2138,0.175237 0.21314,0.179146 -0.16077,0.956709 -0.78352,1.629358 -1.84783,2.91136 -2.83515,3.415059 -0.46751,0.238505 -1.80708,0.519906 -2.38685,0.501399 -0.21316,-0.0068 -0.64375,-0.05492 -0.95686,-0.106931 z M 91.561469,86.828905 c -1.37571,-0.251187 -2.786448,-0.97045 -3.368988,-1.717674 -1.30722,-1.6768 -2.15528,-5.153292 -1.88795,-7.739426 0.18039,-1.745148 0.61813,-3.097007 1.59951,-4.939814 1.381788,-2.59464 2.386758,-3.599404 4.582708,-4.581729 1.43945,-0.643915 2.4163,-0.843224 3.90266,-0.796262 1.42715,0.04509 1.93072,0.201917 2.63556,0.820765 l 0.38912,0.34166 0.610911,-0.474071 c 0.84079,-0.652465 1.44393,-0.933566 2.13819,-0.996518 0.65288,-0.0592 1.38314,0.167432 1.38314,0.429256 0,0.08327 -0.21994,0.33162 -0.48873,0.551887 -0.26881,0.220266 -0.7669,0.750509 -1.10687,1.178318 -1.73154,2.178967 -2.359651,4.428318 -2.359021,8.447944 0.001,3.418511 0.513471,6.197677 1.332701,7.220901 0.14014,0.175019 0.33143,0.06956 1.54968,-0.85431 0.9714,-0.736672 1.00574,-0.752602 1.69333,-0.785362 0.75324,-0.03589 1.2042,0.115577 1.26368,0.424433 0.0759,0.394002 -1.31822,2.055096 -2.18832,2.607409 -1.12532,0.71432 -2.96171,0.870968 -4.430471,0.377927 -0.77567,-0.260389 -0.8171,-0.263598 -1.23574,-0.09575 -0.95139,0.381436 -2.21493,0.586886 -3.87273,0.629703 -0.90223,0.0233 -1.8663,0.0011 -2.14237,-0.04928 z m 3.97985,-1.745117 c 0.74868,-0.08356 1.37939,-0.170065 1.40157,-0.192241 0.0222,-0.02218 -0.0575,-0.242765 -0.17705,-0.490199 -0.61451,-1.271914 -0.8977,-3.500994 -0.80741,-6.355522 0.11421,-3.610873 0.80553,-6.355394 2.03025,-8.060108 0.41883,-0.582987 0.45547,-0.728727 0.18327,-0.728727 -0.10373,0 -0.55758,-0.219607 -1.00859,-0.488015 -0.81253,-0.48355 -0.82461,-0.48687 -1.31958,-0.362679 -1.31596,0.330184 -2.81556,1.323806 -3.5468,2.350065 -1.08813,1.527156 -2.16815,3.922698 -2.46545,5.468481 -0.53008,2.756145 0.49148,6.953517 2.04752,8.412809 0.65949,0.618493 1.35679,0.703439 3.66227,0.446136 z m 47.719051,1.689865 c -0.59173,-0.165749 -1.27574,-0.484514 -1.73734,-0.809625 -0.25454,-0.179278 -0.33715,-0.185744 -0.84667,-0.0663 -0.90742,0.212713 -4.4223,0.178125 -5.2742,-0.0519 -2.38045,-0.642763 -3.82541,-2.058159 -4.40223,-4.312167 -0.2336,-0.912802 -0.23463,-2.916011 -0.002,-4.233333 0.48921,-2.772603 1.38809,-4.57682 3.23557,-6.494466 2.32742,-2.415786 4.73897,-3.589767 7.67761,-3.73756 1.2913,-0.06494 2.17072,0.05707 2.87752,0.39922 l 0.45718,0.221323 0.76682,-0.315792 c 0.97551,-0.401741 1.6923,-0.550377 2.65055,-0.549635 0.87876,6.36e-4 1.43512,0.131161 1.7855,0.41875 0.3699,0.303608 0.15752,0.555066 -0.60997,0.722221 -1.0235,0.22291 -1.33637,0.341571 -1.94802,0.738802 -1.3846,0.899211 -2.34628,2.317207 -2.90464,4.282884 -0.4847,1.706357 -0.80384,4.768039 -0.80823,7.753836 -0.003,2.512829 0.18895,3.379298 0.91207,4.102429 0.32154,0.321527 0.58684,0.35368 1.42867,0.17314 0.70008,-0.150142 1.40574,-0.04134 1.77097,0.273065 l 0.28907,0.24882 -0.44396,0.422529 c -0.69833,0.664617 -1.42643,0.891583 -2.99562,0.933797 -0.9372,0.02521 -1.4849,-0.0098 -1.87847,-0.120035 z m -4.22689,-2.961457 c 0.12738,-0.141941 0.39829,-0.299008 0.60201,-0.349038 l 0.37043,-0.09096 -0.0351,-0.998645 c -0.0626,-1.782942 0.35679,-5.96046 0.82215,-8.188872 0.25157,-1.204716 0.79574,-2.687811 1.28547,-3.503523 0.19889,-0.331273 0.65872,-0.924694 1.02184,-1.318716 0.73857,-0.80138 0.72435,-0.841786 -0.29705,-0.844838 -2.30104,-0.0069 -5.80234,2.908731 -7.05791,5.87726 -0.60688,1.434829 -0.805,2.543165 -0.8126,4.545878 -0.008,1.978264 0.075,2.448908 0.60864,3.472666 0.37994,0.728866 1.1837,1.488955 1.73899,1.64449 0.63522,0.177924 1.4791,0.05965 1.75311,-0.2457 z m 86.99491,2.484549 c -2.87091,-0.752483 -3.86423,-2.282515 -3.88242,-5.98017 -0.009,-1.754852 0.14002,-2.692574 0.68783,-4.339167 0.60283,-1.811965 1.40248,-3.097721 3.58724,-5.767917 0.41753,-0.510308 0.78581,-1.077476 0.85107,-1.310677 0.0633,-0.226102 0.23132,-0.58682 0.37345,-0.801597 1.04854,-1.584457 4.34759,-2.100063 6.49014,-1.014344 1.03261,0.523258 2.37048,1.751463 3.22091,2.956881 0.13522,0.191669 0.20936,0.16835 1.65096,-0.519314 1.67076,-0.796981 2.28089,-0.934843 2.8454,-0.642929 0.18426,0.09528 0.33502,0.234121 0.33502,0.30852 0,0.371884 -1.60497,1.502739 -3.1174,2.196511 -0.94958,0.43558 -0.99883,0.474166 -0.92939,0.72824 0.13216,0.483575 0.0575,2.574719 -0.13044,3.654959 -0.40292,2.315597 -1.1724,4.448573 -2.1179,5.870807 -0.89106,1.34036 -3.22859,3.329907 -4.90689,4.176423 -1.36895,0.690483 -3.40931,0.889588 -4.95758,0.483774 z m 3.03007,-1.808665 c 1.61372,-0.879572 3.39733,-2.360399 4.13578,-3.433701 0.7627,-1.108547 1.42533,-2.765848 1.80936,-4.525447 0.2566,-1.175674 0.43414,-2.951611 0.35138,-3.514858 l -0.0622,-0.423333 h -2.08219 c -2.24061,0 -2.89223,-0.105105 -3.95909,-0.638626 l -0.50107,-0.250573 -0.46813,0.656266 c -0.69322,0.971789 -1.27132,2.10845 -1.69339,3.329508 -0.55753,1.613005 -0.73786,2.694223 -0.74554,4.470509 -0.0119,2.735381 0.42123,3.994523 1.58086,4.596405 0.48186,0.250092 0.77455,0.202423 1.63423,-0.26615 z m 5.7804,-13.455848 c 0.12989,-0.129892 -0.72414,-1.256241 -1.46566,-1.933013 -0.97333,-0.888347 -1.71059,-1.281761 -2.11011,-1.125993 -0.31754,0.123804 -0.92459,1.001893 -0.9241,1.336681 0.001,0.662626 0.63305,1.401341 1.46517,1.712348 0.38935,0.145521 2.89093,0.153745 3.0347,0.01001 z M 9.8838378,86.23449 c -1.57912,-0.416612 -2.785375,-1.37568 -3.43873,-2.73406 -1.06053,-2.204935 -1.486703,-5.63937 -1.402762,-11.30456 0.04428,-2.987923 0.07612,-3.458325 0.327938,-4.843881 0.999079,-5.49714 2.40775,-9.306831 4.7252642,-12.779275 1.404579,-2.10455 2.428752,-3.065777 3.74715,-3.51685 1.074822,-0.367739 2.814473,-0.214581 2.814473,0.247782 0,0.290496 1.494156,0.986463 2.611014,1.21619 1.789634,0.368112 2.539927,0.720767 3.309314,1.555452 l 0.457737,0.496586 0.912009,-0.342746 c 1.149397,-0.431961 3.240329,-1.319641 4.614168,-1.958893 1.240553,-0.577231 1.847087,-0.679691 2.383257,-0.402596 0.20373,0.105292 0.370417,0.262871 0.370417,0.350184 0,0.394914 -4.774289,2.84788 -7.268146,3.734275 -0.155855,0.0554 -0.121123,0.200898 0.286998,1.202321 1.070936,2.627807 1.644827,6.888873 1.494591,11.097153 -0.09942,2.784988 -0.524102,5.040708 -1.460003,7.754919 -1.188938,3.44805 -2.728635,5.658828 -4.971167,7.137861 -1.188112,0.783604 -3.826595,2.241433 -4.733723,2.615502 -1.522228,0.627719 -3.467418,0.820875 -4.7797992,0.474636 z m 4.3742712,-2.725064 c 1.084854,-0.49142 2.320391,-1.110347 2.745639,-1.375393 2.415934,-1.505785 3.875321,-3.809798 5.097515,-8.047714 0.799075,-2.770769 1.082182,-5.255969 0.960051,-8.427663 -0.14536,-3.775002 -0.678153,-6.750053 -1.539959,-8.598958 -0.159589,-0.342379 -0.08566,-0.336281 -1.485335,-0.12254 -1.528751,0.233452 -4.070783,0.15394 -5.160938,-0.161429 -0.749763,-0.216897 -1.511995,-0.566685 -1.995583,-0.915772 -0.227421,-0.164168 -0.24013,-0.152024 -0.61039,0.583216 -1.864024,3.701456 -3.4400032,9.695659 -3.4802742,13.23715 -0.01493,1.312653 0.06076,3.775607 0.201654,6.561666 0.06805,1.345516 0.368209,3.282323 0.727789,4.696015 0.5213472,2.049685 1.5661392,3.665161 2.2782882,3.52273 0.158995,-0.0318 1.17669,-0.459886 2.261543,-0.951308 z m 5.183667,-28.021307 c 1.089527,-0.162046 1.127953,-0.199929 0.722316,-0.712087 -0.428604,-0.541158 -1.053371,-0.841698 -2.146424,-1.032519 -1.127131,-0.19677 -1.64031,-0.337996 -2.122977,-0.584234 -0.21629,-0.110343 -0.41774,-0.200623 -0.447669,-0.200623 -0.177826,0 -0.395799,0.71556 -0.347771,1.141663 0.138941,1.232673 1.805196,1.765181 4.342525,1.3878 z M 37.61217,86.027122 c -2.061854,-0.575679 -2.539361,-2.077201 -2.169436,-6.8218 0.283897,-3.64122 0.157197,-6.081405 -0.386118,-7.436505 -0.14957,-0.373048 -0.180537,-0.347164 -1.216611,1.016886 -1.715771,2.25891 -2.23241,2.81463 -2.743872,2.951425 l -0.468963,0.125428 0.0023,2.015341 c 0.0013,1.108438 0.06947,3.05338 0.151545,4.322092 0.175382,2.710946 0.153709,2.837451 -0.530923,3.098914 -0.645032,0.246339 -2.049548,0.170173 -2.458567,-0.133328 -0.533309,-0.395728 -0.582688,-0.744103 -0.632721,-4.463972 -0.09103,-6.767836 0.514355,-11.606533 1.571861,-12.563562 0.293326,-0.265457 1.215744,-0.323061 1.730319,-0.108064 l 0.409663,0.171169 -0.0692,1.083544 c -0.03806,0.595949 -0.09613,1.916981 -0.129039,2.935627 -0.04989,1.543888 -0.03661,1.823002 0.07975,1.677318 0.07677,-0.09612 0.556575,-0.767111 1.066227,-1.491084 1.565315,-2.223575 1.884424,-2.461022 3.306694,-2.460489 1.101323,4.23e-4 1.580908,0.191209 2.171569,0.863936 0.756433,0.861529 1.519278,2.97897 1.792721,4.976077 0.06337,0.462856 0.157926,2.26688 0.210116,4.008941 0.08703,2.905019 0.185021,3.847276 0.426587,4.102 0.04587,0.04838 0.28565,-0.01522 0.532837,-0.141332 0.808835,-0.412636 2.070486,-0.383725 2.435265,0.05581 0.279994,0.337371 -0.855407,1.564806 -1.882389,2.034975 -0.756866,0.346503 -2.294639,0.433327 -3.199624,0.180649 z m 160.37272,0.04707 c -0.18435,-0.05337 -0.45819,-0.243231 -0.60854,-0.421908 -0.261,-0.310175 -0.27342,-0.383135 -0.27446,-1.613206 -0.001,-0.708586 0.0796,-2.502776 0.17838,-3.987089 0.15939,-2.396693 0.16465,-3.113336 0.0471,-6.402916 -0.0728,-2.037291 -0.17432,-4.085167 -0.22558,-4.550833 -0.17103,-1.553582 -0.12722,-3.132473 0.10802,-3.89422 0.32903,-1.065292 0.4674,-1.18578 1.36168,-1.18578 1.12484,0 1.12438,-8.46e-4 1.12438,2.111586 0,0.953183 0.0287,1.761882 0.0637,1.797106 0.0351,0.03522 0.4898,-0.07518 1.01056,-0.245364 0.52075,-0.170176 1.56365,-0.409823 2.31752,-0.532548 1.84206,-0.299872 2.29507,-0.408046 3.19907,-0.763905 0.81417,-0.320491 1.37063,-0.375979 1.90442,-0.189896 0.62329,0.217279 0.49077,0.530654 -0.49339,1.166637 -0.68557,0.443027 -1.54227,0.689445 -3.61333,1.039321 -1.03007,0.174017 -2.1836,0.438157 -2.59292,0.593737 -0.40552,0.154145 -0.90401,0.344094 -1.10774,0.422109 l -0.37042,0.141847 0.0157,0.669268 c 0.009,0.368097 0.0968,1.859893 0.19575,3.315102 0.14711,2.162694 0.16612,3.385831 0.10406,6.698313 -0.0705,3.762134 -0.0627,4.067032 0.10791,4.255559 0.19194,0.212084 0.15902,0.767848 -0.0709,1.197514 -0.23223,0.433937 -1.49688,0.635539 -2.38102,0.379566 z m -17.92107,-0.163321 c -1.47406,-0.1268 -3.18106,-0.736489 -3.94847,-1.41027 -0.89202,-0.783216 -1.37111,-2.207766 -1.37155,-4.078194 -0.001,-2.55801 0.84654,-6.016249 2.08941,-8.529514 0.77699,-1.571196 1.32012,-2.339015 2.39119,-3.380371 1.33943,-1.30228 2.12703,-1.642607 4.06734,-1.757543 1.29113,-0.07648 2.7596,0.151898 3.63277,0.564973 1.01885,0.481987 1.83501,1.469664 2.23474,2.70433 0.0706,0.218281 0.15521,0.396875 0.18787,0.396875 0.19038,0 1.64951,-1.343521 2.32916,-2.144607 0.4388,-0.517197 0.91374,-0.984428 1.05541,-1.038291 0.38223,-0.145322 1.0473,-0.118812 1.4721,0.05867 0.44424,0.185616 0.43836,0.230894 -0.18786,1.445575 -0.72254,1.401522 -1.94235,2.548208 -3.6292,3.411645 l -0.7367,0.377081 -0.0216,1.590086 c -0.0803,5.933925 -1.8207,9.758348 -5.05301,11.103962 -1.26537,0.526771 -3.10612,0.806491 -4.51167,0.685585 z m 2.09026,-2.158223 c 0.73915,-0.369363 1.78515,-1.421968 2.33705,-2.351834 0.97267,-1.6388 1.72438,-4.450577 1.88845,-7.063824 l 0.0631,-1.005417 -0.99768,0.03591 c -1.82728,0.06579 -3.64634,-0.392715 -4.73834,-1.194315 l -0.51155,-0.375509 -0.37465,1.137369 c -1.29151,3.920782 -1.50421,8.339277 -0.49063,10.191439 0.52135,0.952662 1.66391,1.205987 2.82422,0.626173 z m 4.18276,-12.047995 c 0.11786,-0.117869 -0.0888,-1.258638 -0.35859,-1.979845 -0.4225,-1.12922 -1.39335,-1.746779 -2.488,-1.582626 -0.74783,0.112143 -1.09878,0.508956 -1.09576,1.238959 0.007,1.553485 1.30134,2.598813 3.06202,2.471801 0.43392,-0.03131 0.83006,-0.09803 0.88033,-0.148289 z m 67.54573,13.951748 c -1.60744,-0.249069 -2.65163,-0.883596 -2.9169,-1.772513 -0.17442,-0.584485 -0.0115,-0.771735 0.73367,-0.843338 0.7485,-0.07192 1.01984,0.02335 1.59275,0.559235 0.68948,0.644937 1.13539,0.806596 2.40376,0.871482 1.39468,0.07135 1.62631,0.01383 1.62631,-0.403843 0,-0.397931 0.35645,-1.114697 0.62613,-1.259021 0.36178,-0.193622 0.59095,-1.016293 0.59095,-2.121413 0,-1.179203 -0.15385,-1.532638 -0.8334,-1.914564 -0.39609,-0.222618 -0.6086,-0.24709 -2.76119,-0.317971 -2.5494,-0.08395 -3.26899,-0.211141 -4.00998,-0.708795 -1.1959,-0.803175 -1.42293,-2.382209 -0.65752,-4.573012 0.48207,-1.379746 1.80179,-3.471658 2.67244,-4.236099 0.97214,-0.853547 2.79095,-1.366899 4.85606,-1.370602 2.02114,-0.0036 3.00901,0.426464 3.00901,1.310046 0,0.90559 -1.4759,1.073871 -2.32252,0.264809 -0.3063,-0.292733 -0.3738,-0.31262 -0.83106,-0.244905 -1.27251,0.188444 -1.72961,0.502336 -2.49204,1.71132 -1.26698,2.009035 -1.8549,3.716847 -1.71522,4.98243 0.0872,0.789901 0.30791,1.180588 0.66959,1.185131 0.15859,0.002 1.14558,0.04722 2.19333,0.100518 2.53297,0.128834 3.8572,0.503944 4.84698,1.372985 l 0.3569,0.31335 -0.0821,-0.498361 c -0.11829,-0.718099 -0.1106,-2.189712 0.0155,-2.966695 0.14511,-0.894248 0.82295,-2.929037 1.34596,-4.040416 1.13097,-2.403297 2.68834,-3.506684 5.1809,-3.670652 2.45033,-0.161191 3.65865,0.706936 3.80584,2.734315 0.13529,1.863682 -0.62866,3.411731 -2.17311,4.403494 -0.59552,0.382411 -3.31316,1.665925 -3.77024,1.780643 -0.31657,0.07945 -0.3316,0.248313 -0.11413,1.282136 0.50032,2.378425 1.84921,4.795565 2.67503,4.793489 0.48057,-0.0012 1.87242,-0.374274 3.73096,-1.000027 1.37232,-0.462047 1.88251,-0.586732 2.40081,-0.586732 1.09088,0 1.54086,0.301751 1.1346,0.760855 -0.49771,0.562435 -2.73729,1.803418 -4.09551,2.26938 -1.25307,0.429885 -2.15875,0.579734 -3.51471,0.58153 -2.78554,0.0037 -4.42097,-0.84056 -5.4671,-2.822282 l -0.37508,-0.710502 -0.0726,0.621969 c -0.17083,1.46296 -0.80415,2.630995 -1.62791,3.002369 -0.27324,0.123177 -0.71109,0.335603 -0.97304,0.472057 -1.02413,0.533514 -1.85954,0.713157 -3.4925,0.751017 -0.84402,0.01957 -1.82033,-0.0087 -2.16958,-0.06281 z m 13.0231,-11.533825 c 1.71772,-0.84307 2.39305,-1.806395 2.40935,-3.436836 0.009,-0.871629 -0.14974,-1.407857 -0.51834,-1.754139 l -0.26684,-0.250681 -0.48661,0.258144 c -0.90091,0.477931 -1.57976,1.760808 -2.08901,3.947729 -0.35899,1.541698 -0.39122,1.767697 -0.25204,1.767697 0.0659,0 0.60743,-0.239362 1.20349,-0.531914 z M 46.997171,85.492552 c -2.608051,-0.471289 -4.123083,-2.087272 -4.576674,-4.881637 -0.41667,-2.566903 0.03296,-6.285314 1.00671,-8.325534 0.697499,-1.461404 2.012762,-2.464563 3.921629,-2.991051 1.018671,-0.280962 3.117665,-0.257054 3.940501,0.04488 1.288983,0.472987 2.117046,1.315419 2.133239,2.170256 0.01353,0.714085 -0.393634,1.395959 -1.467192,2.457106 -1.516557,1.499024 -3.694719,2.916083 -4.979638,3.239629 -0.311306,0.07839 -0.476433,0.178405 -0.481914,0.291892 -0.10978,2.273076 0.5181,4.535455 1.556154,5.607188 l 0.557394,0.575476 0.614269,-0.05817 c 0.347115,-0.03287 1.189626,-0.274791 1.937187,-0.556243 1.237433,-0.465889 1.373024,-0.49488 2.098355,-0.448669 0.600907,0.03828 0.824995,0.09896 0.995622,0.269586 0.203565,0.203566 0.207858,0.238993 0.05688,0.469414 -0.08981,0.137077 -0.511454,0.482816 -0.936972,0.768307 -1.961917,1.316304 -4.109735,1.777016 -6.375551,1.367568 z m 0.4341,-10.248681 c 1.115337,-0.687652 2.2312,-1.552736 2.85874,-2.216267 0.835622,-0.883546 0.963129,-1.399858 0.485801,-1.967129 -0.603313,-0.716998 -1.167583,-0.799517 -2.140985,-0.313103 -1.028712,0.514053 -1.520891,1.400157 -1.869672,3.366096 -0.26368,1.486252 -0.276659,1.599355 -0.18354,1.599355 0.04897,0 0.431316,-0.21103 0.849656,-0.468952 z M 244.728,85.445073 c -1.55776,-0.236963 -2.36368,-1.019343 -2.70521,-2.62618 -0.54806,-2.578425 -0.11233,-10.103769 0.75967,-13.120458 0.33339,-1.153316 0.53501,-1.504866 0.99663,-1.73774 0.65024,-0.328023 2.00328,-0.191355 2.1671,0.218898 0.0959,0.240116 0.0717,2.147093 -0.0525,4.146563 -0.0561,0.902229 -0.10318,3.189479 -0.10461,5.082775 -0.002,3.271062 0.09,4.856577 0.31895,5.458715 0.10142,0.26674 0.10604,0.267758 0.35205,0.0767 1.6098,-1.250349 1.40018,-1.146116 2.30483,-1.146116 0.69155,0 0.86079,0.03527 1.04283,0.217299 l 0.2173,0.217299 -0.27148,0.510568 c -0.43534,0.818777 -1.16983,1.70333 -1.71318,2.063232 -0.84487,0.559621 -2.16184,0.813457 -3.31239,0.638436 z m -77.92323,-1.275276 c -0.84999,-0.200147 -1.61849,-0.773183 -1.98181,-1.477729 -0.37566,-0.72849 -0.45084,-1.59055 -0.38256,-4.38633 0.0355,-1.455207 0.0959,-4.562739 0.13428,-6.905624 l 0.0696,-4.259791 h -0.26622 c -0.14642,0 -0.51754,0.04766 -0.82469,0.105908 -1.06473,0.201918 -1.79215,-0.219842 -1.22321,-0.709217 0.31508,-0.271029 0.82504,-0.432192 1.65369,-0.522631 l 0.58882,-0.06426 0.12873,-1.297653 c 0.17707,-1.785065 0.3003,-2.175162 0.76029,-2.406776 0.77715,-0.391309 1.97112,-0.118594 2.12837,0.486143 0.043,0.165604 0.13734,0.93951 0.20954,1.719792 l 0.13125,1.418693 2.81208,0.0059 c 3.00476,0.0064 3.52681,0.07593 3.58423,0.477538 0.0656,0.458789 -0.92469,0.631806 -4.28517,0.748671 l -2.03136,0.07064 0.0419,0.274629 c 0.13562,0.888236 0.18831,2.482389 0.2609,7.894627 0.0748,5.578772 0.13311,6.65512 0.37447,6.91343 0.0579,0.06197 0.71462,-0.316276 1.77603,-1.022972 0.95789,-0.637768 1.09959,-0.699196 1.70138,-0.737515 0.7291,-0.04643 1.4426,0.175203 1.4426,0.448106 0,0.207449 -1.12599,1.517403 -1.7159,1.996264 -0.74047,0.601052 -1.48133,1.009019 -2.14746,1.182522 -0.67921,0.176915 -2.28051,0.202818 -2.93987,0.04755 z m 76.84719,-18.636353 c -0.21345,-0.05684 -0.46977,-0.193567 -0.56958,-0.30385 -0.16853,-0.186225 -0.16914,-0.219298 -0.009,-0.464086 0.095,-0.144965 0.1727,-0.382634 0.1727,-0.528155 0,-0.599451 0.98393,-0.656947 2.14984,-0.125625 0.87707,0.399689 0.96828,0.490821 0.87265,0.871873 -0.13931,0.554997 -1.51323,0.843683 -2.61685,0.549843 z"
       id="path362" /></g></svg>
